<svg xmlns="http://www.w3.org/2000/svg" width="352.791" height="206" viewBox="0 0 352.791 206">
  <g id="Group_21" data-name="Group 21" transform="translate(-271.605 2057.5)">
    <g id="Group_20" data-name="Group 20" transform="translate(55 -380.5)">
      <g id="Group_19" data-name="Group 19" transform="translate(-1 -3)" style="mix-blend-mode: lighten;isolation: isolate">
        <ellipse id="Ellipse_15" data-name="Ellipse 15" cx="106" cy="103" rx="106" ry="103" transform="translate(288 -1674)" fill="#fff"/>
        <g id="Group_18" data-name="Group 18">
          <g id="Group_17" data-name="Group 17">
            <g id="Group_16" data-name="Group 16">
              <ellipse id="Ellipse_14" data-name="Ellipse 14" cx="91" cy="88.5" rx="91" ry="88.5" transform="translate(303 -1660)"/>
              <g id="Group_15" data-name="Group 15" transform="translate(-2 1)" style="mix-blend-mode: lighten;isolation: isolate">
                <ellipse id="Ellipse_13" data-name="Ellipse 13" cx="60" cy="58.5" rx="60" ry="58.5" transform="translate(336 -1630)" fill="#fff"/>
                <path id="Path_11" data-name="Path 11" d="M-.524-1.969l14.135.3L14.1,66.739l-14.46.209Z" transform="translate(366.458 -1597.738) rotate(-11)"/>
                <path id="Path_12" data-name="Path 12" d="M-1.677-1.886l48.537.844.223,11.251-48.731.382Z" transform="translate(367.574 -1598.033) rotate(-11)"/>
                <path id="Path_13" data-name="Path 13" d="M-1.677-1.886l46.427.844.213,11.251L-1.65,10.59Z" transform="translate(372.574 -1572.033) rotate(-11)"/>
                <path id="Path_14" data-name="Path 14" d="M-1.677-1.886l50.243.895L48.8,10.942l-50.443.4Z" transform="translate(378.43 -1543.776) rotate(-11)"/>
                <path id="Path_15" data-name="Path 15" d="M-1.784-.968,14.132-1.34,14.3,11.811-1.591,12.8Z" transform="translate(397.607 -1537.353) rotate(81)"/>
                <path id="Path_16" data-name="Path 16" d="M-1.784-.982,14.838-1.34l.176,12.655-16.6.948Z" transform="translate(391.822 -1605.299) rotate(-99)"/>
                <path id="Path_17" data-name="Path 17" d="M-1.784-.982,14.132-1.34,14.3,11.316l-15.892.948Z" transform="translate(372.822 -1602.299) rotate(-99)"/>
                <path id="Path_18" data-name="Path 18" d="M-1.784-.957,14.132-1.34,14.3,12.222-1.591,13.238Z" transform="translate(416.607 -1541.353) rotate(81)"/>
              </g>
            </g>
          </g>
          <path id="Path_19" data-name="Path 19" d="M1.89,1.11S4.657-.521,6.459-.153,9.1,2.579,9.1,2.579,6.376,14.4,6.591,22.194c.078,2.837.863,9.1.863,9.1s1.394,4.68.286,6.909S3.023,40.21,3.023,40.21s-2.279-.662-3.07-8.22a114.016,114.016,0,0,1-.1-22.011A40.888,40.888,0,0,1,1.89,1.11Z" transform="matrix(0.799, 0.602, -0.602, 0.799, 346.646, -1634.795)" fill="#fff"/>
          <path id="Path_20" data-name="Path 20" d="M1.89,1.11S4.657-.521,6.459-.153,9.1,2.579,9.1,2.579,6.376,14.4,6.591,22.194c.078,2.837.863,9.1.863,9.1s1.394,4.68.286,6.909S3.023,40.21,3.023,40.21s-2.279-.662-3.07-8.22a114.016,114.016,0,0,1-.1-22.011A40.888,40.888,0,0,1,1.89,1.11Z" transform="translate(413.834 -1648.538) rotate(88)" fill="#fff"/>
          <path id="Path_21" data-name="Path 21" d="M1.89,1.11S4.657-.521,6.459-.153,9.1,2.579,9.1,2.579,6.376,14.4,6.591,22.194c.078,2.837.863,9.1.863,9.1s1.394,4.68.286,6.909S3.023,40.21,3.023,40.21s-2.279-.662-3.07-8.22a114.016,114.016,0,0,1-.1-22.011A40.888,40.888,0,0,1,1.89,1.11Z" transform="translate(465.871 -1604.027) rotate(141)" fill="#fff"/>
          <path id="Path_22" data-name="Path 22" d="M1.89,1.11S4.657-.521,6.459-.153,9.1,2.579,9.1,2.579,6.376,14.4,6.591,22.194c.078,2.837.863,9.1.863,9.1s1.394,4.68.286,6.909S3.023,40.21,3.023,40.21s-2.279-.662-3.07-8.22a114.016,114.016,0,0,1-.1-22.011A40.888,40.888,0,0,1,1.89,1.11Z" transform="translate(463.617 -1535.463) rotate(-167)" fill="#fff"/>
          <path id="Path_23" data-name="Path 23" d="M1.89,1.11S4.657-.521,6.459-.153,9.1,2.579,9.1,2.579,6.376,14.4,6.591,22.194c.078,2.837.863,9.1.863,9.1s1.394,4.68.286,6.909S3.023,40.21,3.023,40.21s-2.279-.662-3.07-8.22a114.016,114.016,0,0,1-.1-22.011A40.888,40.888,0,0,1,1.89,1.11Z" transform="translate(409.089 -1494.481) rotate(-117)" fill="#fff"/>
          <path id="Path_24" data-name="Path 24" d="M1.89,1.11S4.657-.521,6.459-.153,9.1,2.579,9.1,2.579,6.376,14.4,6.591,22.194c.078,2.837.863,9.1.863,9.1s1.394,4.68.286,6.909S3.023,40.21,3.023,40.21s-2.279-.662-3.07-8.22a114.016,114.016,0,0,1-.1-22.011A40.888,40.888,0,0,1,1.89,1.11Z" transform="matrix(0.358, -0.934, 0.934, 0.358, 343.797, -1510.551)" fill="#fff"/>
          <path id="Path_25" data-name="Path 25" d="M1.89,1.11S4.657-.521,6.459-.153,9.1,2.579,9.1,2.579,6.376,14.4,6.591,22.194c.078,2.837.863,9.1.863,9.1s1.394,4.68.286,6.909S3.023,40.21,3.023,40.21s-2.279-.662-3.07-8.22a114.016,114.016,0,0,1-.1-22.011A40.888,40.888,0,0,1,1.89,1.11Z" transform="translate(315.363 -1574.539) rotate(-13)" fill="#fff"/>
        </g>
      </g>
      <g id="Group_13" data-name="Group 13" transform="translate(-1187.88 -1796.5)">
        <path id="Polygon_3" data-name="Polygon 3" d="M18.5,0,37,31H0Z" transform="matrix(0.017, -1, 1, 0.017, 1404.485, 240.727)" fill="#fff"/>
        <rect id="Rectangle_13" data-name="Rectangle 13" width="35" height="20" transform="translate(1434.276 213)" fill="#fff"/>
      </g>
      <g id="Group_14" data-name="Group 14" transform="translate(1973.88 -1351.5) rotate(180)">
        <path id="Polygon_3-2" data-name="Polygon 3" d="M18.5,0,37,31H0Z" transform="matrix(0.017, -1, 1, 0.017, 1404.485, 240.727)" fill="#fff"/>
        <rect id="Rectangle_13-2" data-name="Rectangle 13" width="35" height="20" transform="translate(1434.276 213)" fill="#fff"/>
      </g>
      <rect id="Rectangle_14" data-name="Rectangle 14" width="42" height="20" rx="9" transform="translate(248 -1620)" fill="#fff"/>
      <rect id="Rectangle_15" data-name="Rectangle 15" width="42" height="20" rx="9" transform="translate(248 -1548)" fill="#fff"/>
      <rect id="Rectangle_16" data-name="Rectangle 16" width="42" height="20" rx="9" transform="translate(497 -1548)" fill="#fff"/>
      <rect id="Rectangle_17" data-name="Rectangle 17" width="42" height="20" rx="9" transform="translate(497 -1620)" fill="#fff"/>
    </g>
  </g>
</svg>
